# xmcd
#
# Track frame offsets:
#	150
#	12680
#	23075
#	41360
#	54790
#	69787
#	81058
#	95470
#	111485
#	131290
#	141258
#	152590
#	170590
#	179443
#	193040
#	208275
#
# Disc length: 2965 seconds
#
# Revision: 1
# Processed by: cddbd v1.5.2PL0 Copyright (c) Steve Scherf et al.
# Submitted via: audiograbber 1.83.01
#
DISCID=d60b9310
DTITLE=Veselka - Böhmisches Musikantenherz
DYEAR=1900
DGENRE=Blasmusik
TTITLE0=Gut gelaunt
TTITLE1=Heimatland Polka
TTITLE2=Posaunenlaunen
TTITLE3=Gute Kameraden
TTITLE4=Liesbeth Polka
TTITLE5=Musikantengeflüster
TTITLE6=Darovana
TTITLE7=Musikantenherz
TTITLE8=Stolze Freunde
TTITLE9=Polkazauber
TTITLE10=Xylophon Galopp
TTITLE11=Abenddämmerung
TTITLE12=Klarinetten - Bravour
TTITLE13=Dasenka
TTITLE14=Die verliebte Tuba
TTITLE15=Taborska
EXTD=
EXTT0=
EXTT1=
EXTT2=
EXTT3=
EXTT4=
EXTT5=
EXTT6=
EXTT7=
EXTT8=
EXTT9=
EXTT10=
EXTT11=
EXTT12=
EXTT13=
EXTT14=
EXTT15=
PLAYORDER=
